<svg width="25" height="24" viewBox="0 0 25 24" fill="none" xmlns="http://www.w3.org/2000/svg">
<g opacity="0.9">
<path d="M18.0612 12.7904V12.0347C18.0513 10.916 17.6281 9.8405 16.8729 9.01517C16.1177 8.18985 15.0839 7.67303 13.9705 7.56416C13.8276 6.57448 13.3328 5.66946 12.5769 5.01488C11.821 4.3603 10.8545 3.99999 9.85455 4H9.75326C8.62781 4.00315 7.5492 4.45102 6.75251 5.24596C5.95582 6.0409 5.50562 7.11851 5.5 8.24395V19.4149C5.5 19.5701 5.56164 19.7189 5.67137 19.8286C5.78111 19.9384 5.92994 20 6.08513 20C6.24032 20 6.38916 19.9384 6.49889 19.8286C6.60863 19.7189 6.67026 19.5701 6.67026 19.4149V8.24395C6.67132 7.42637 6.9964 6.64254 7.57426 6.06417C8.15212 5.48581 8.93569 5.16007 9.75326 5.15831H9.82921C10.5314 5.16225 11.2107 5.40882 11.7519 5.85627C12.2931 6.30372 12.663 6.92451 12.7989 7.61346C11.7578 7.79317 10.8138 8.33554 10.1341 9.14449C9.45447 9.95343 9.08298 10.9768 9.08548 12.0333V12.7891H8.41903V13.9474H18.8289V12.7891L18.0612 12.7904ZM16.9029 12.7904H10.2384L10.2504 12.0347C10.2504 11.5983 10.3363 11.1662 10.5033 10.763C10.6703 10.3599 10.9151 9.9936 11.2237 9.68504C11.5322 9.37648 11.8985 9.13173 12.3017 8.96474C12.7048 8.79775 13.137 8.71177 13.5733 8.71177C14.0097 8.71177 14.4418 8.79775 14.8449 8.96474C15.2481 9.13173 15.6144 9.37648 15.923 9.68504C16.2315 9.9936 16.4763 10.3599 16.6433 10.763C16.8103 11.1662 16.8962 11.5983 16.8962 12.0347L16.9029 12.7904Z" fill="#ffcd11"/>
<path d="M16.1506 16.4213H15.2363V14.6885H14.07V16.4213H13.1596V14.6885H11.9934V16.4213H11.0803V14.6885H9.91406V16.5412H10.9524V18.266H11.9934V19.9987H13.1596V18.266H14.07V19.9987H15.2363V18.266H16.2759V16.5412H17.3169V14.6885H16.1506V16.4213ZM12.1187 18.146V16.5465H13.0343V18.146H12.1187ZM14.1993 16.5465H15.111V18.146H14.1993V16.5465Z" fill="#ffcd11"/>
<path d="M6.67429 10.5831V19.4135C6.6671 19.5644 6.60207 19.7068 6.49275 19.811C6.38343 19.9152 6.23818 19.9734 6.08713 19.9734C5.93607 19.9734 5.79082 19.9152 5.6815 19.811C5.57218 19.7068 5.50719 19.5644 5.5 19.4135V10.5831C5.50719 10.4323 5.57218 10.2899 5.6815 10.1857C5.79082 10.0815 5.93607 10.0233 6.08713 10.0233C6.23818 10.0233 6.38343 10.0815 6.49275 10.1857C6.60207 10.2899 6.6671 10.4323 6.67429 10.5831Z" fill="#ffcd11"/>
</g>
</svg>