<svg width="25" height="24" viewBox="0 0 25 24" fill="none" xmlns="http://www.w3.org/2000/svg">
<path d="M20.9156 12.108V8.00405C20.9037 7.06749 20.5221 6.17357 19.854 5.5172C19.1858 4.86083 18.2852 4.49522 17.3486 4.50005H7.66312C6.7265 4.49522 5.82595 4.86083 5.15778 5.5172C4.4896 6.17357 4.10799 7.06749 4.09613 8.00405V12.108C3.70897 12.6359 3.49889 13.2729 3.49609 13.9276V18.825C3.50433 19.0007 3.57994 19.1665 3.70717 19.2879C3.8344 19.4093 4.00349 19.477 4.17935 19.477C4.35522 19.477 4.52435 19.4093 4.65158 19.2879C4.77881 19.1665 4.85438 19.0007 4.86261 18.825V16.875H20.1326V18.825C20.1323 18.9137 20.15 19.0016 20.1846 19.0833C20.2191 19.165 20.2698 19.2389 20.3336 19.3006C20.4619 19.4268 20.6351 19.4969 20.8151 19.4956C20.9046 19.4956 20.9931 19.478 21.0757 19.4438C21.1584 19.4096 21.2334 19.3594 21.2966 19.2961C21.3593 19.2349 21.4092 19.1619 21.4435 19.0813C21.4777 19.0007 21.4956 18.9141 21.4961 18.8265V13.9411C21.501 13.2841 21.2978 12.6424 20.9156 12.108ZM10.7621 9.42156V10.7715H7.8161V9.42156C7.81649 9.41386 7.81981 9.40658 7.82539 9.40128C7.83098 9.39597 7.83843 9.39303 7.84613 9.39304H10.7411C10.7501 9.39304 10.7576 9.39304 10.7576 9.39304C10.7616 9.39651 10.7642 9.40129 10.765 9.4065C10.7658 9.4117 10.7648 9.41703 10.7621 9.42156ZM17.2031 9.42156V10.7715H14.2571L14.2481 9.42156C14.2485 9.41346 14.252 9.40581 14.2578 9.40022C14.2637 9.39464 14.2715 9.39152 14.2796 9.39153H17.1731C17.1772 9.39104 17.1813 9.39152 17.1852 9.39285C17.189 9.39419 17.1925 9.39637 17.1954 9.39926C17.1983 9.40215 17.2005 9.40566 17.2018 9.40952C17.2031 9.41338 17.2036 9.4175 17.2031 9.42156ZM18.5621 10.7715V9.41103C18.5554 9.04457 18.4049 8.69545 18.1431 8.43897C17.8813 8.18248 17.5291 8.03918 17.1626 8.04003H14.2721C13.9059 8.03957 13.5541 8.18302 13.2926 8.43947C13.0311 8.69592 12.8808 9.04483 12.8741 9.41103V10.7611H12.1241V9.41103C12.1186 9.04446 11.9687 8.69488 11.7069 8.43819C11.4452 8.18149 11.0927 8.0384 10.7261 8.04003H7.83263C7.46637 8.03957 7.11455 8.18302 6.85306 8.43947C6.59156 8.69592 6.4413 9.04483 6.43462 9.41103V10.77C6.09461 10.7989 5.76138 10.882 5.44759 11.016V7.99654C5.4491 7.68001 5.52096 7.36779 5.65793 7.08243C5.7949 6.79707 5.99359 6.54569 6.23961 6.34653C6.64167 6.01762 7.14517 5.83797 7.66463 5.83804H17.3411C17.9204 5.83958 18.4765 6.06598 18.8921 6.46953C19.0975 6.66787 19.2607 6.9056 19.372 7.16849C19.4834 7.43138 19.5406 7.71406 19.5401 7.99956L19.5491 11.0145C19.2346 10.8832 18.9017 10.8018 18.5621 10.7731V10.7715ZM6.72859 12.1035H18.2621C18.752 12.1004 19.2231 12.2918 19.5718 12.6358C19.9206 12.9798 20.1185 13.4482 20.1221 13.938V15.54H4.86412V13.9411C4.86389 13.6996 4.91224 13.4606 5.0063 13.2382C5.10036 13.0158 5.23819 12.8146 5.41161 12.6465C5.76158 12.2988 6.23521 12.104 6.72859 12.1051V12.1035Z" fill="#ffcd11"/>
</svg>