<svg width="25" height="24" viewBox="0 0 25 24" fill="none" xmlns="http://www.w3.org/2000/svg">
<path d="M8.80099 18.9295H6.32653L8.98498 16.263C9.03603 16.2125 9.07647 16.1522 9.10395 16.0858C9.13142 16.0194 9.14536 15.9482 9.14496 15.8764C9.14295 15.735 9.08493 15.6003 8.98364 15.5017C8.88896 15.4102 8.76417 15.3563 8.63263 15.3502C8.50109 15.344 8.3718 15.3861 8.26901 15.4684L5.56658 18.1709V15.6964C5.56658 15.5549 5.5104 15.4193 5.41039 15.3193C5.31037 15.2193 5.17474 15.1631 5.0333 15.1631C4.96327 15.1631 4.89392 15.1769 4.82922 15.2037C4.76451 15.2305 4.70572 15.2698 4.6562 15.3193C4.60668 15.3688 4.56741 15.4276 4.54061 15.4923C4.51381 15.557 4.5 15.6263 4.5 15.6964V19.4667C4.5 19.6082 4.55619 19.7438 4.6562 19.8438C4.75621 19.9438 4.89186 20 5.0333 20H8.80234C8.94377 20 9.07941 19.9438 9.17942 19.8438C9.27943 19.7438 9.33562 19.6082 9.33562 19.4667C9.33562 19.3253 9.27943 19.1897 9.17942 19.0896C9.07941 18.9896 8.94377 18.9334 8.80234 18.9334L8.80099 18.9295Z" fill="#ffcd11"/>
<path d="M5.02387 8.8356C5.16531 8.8356 5.30094 8.77942 5.40095 8.6794C5.50097 8.57939 5.55715 8.44376 5.55715 8.30232V5.82784L8.11427 8.38764C8.21728 8.48409 8.35313 8.53773 8.49424 8.53773C8.63536 8.53773 8.7712 8.48409 8.87422 8.38764C8.97193 8.28795 9.02667 8.15393 9.02667 8.01434C9.02667 7.87475 8.97193 7.74073 8.87422 7.64104L6.31842 5.08392H8.89021V5.0759C9.03164 5.06477 9.16287 4.99789 9.255 4.89001C9.34714 4.78212 9.39264 4.64207 9.3815 4.50063C9.37036 4.3592 9.30349 4.22797 9.1956 4.13584C9.08771 4.0437 8.94767 3.9982 8.80623 4.00934H5.03719C4.89576 4.00934 4.76012 4.06553 4.66011 4.16554C4.5601 4.26555 4.50391 4.40119 4.50391 4.54262V8.29963C4.50317 8.43925 4.55722 8.57358 4.65443 8.67379C4.75165 8.774 4.88429 8.83211 5.02387 8.8356Z" fill="#ffcd11"/>
<path d="M19.9725 4H16.1915C16.05 4 15.9144 4.05619 15.8144 4.1562C15.7144 4.25621 15.6582 4.39188 15.6582 4.53332C15.6582 4.67476 15.7144 4.81039 15.8144 4.91041C15.9144 5.01042 16.05 5.0666 16.1915 5.0666H18.6659L16.1102 7.62104C16.0592 7.67072 16.0186 7.73014 15.9909 7.79575C15.9633 7.86135 15.949 7.9318 15.949 8.003C15.949 8.0742 15.9633 8.1447 15.9909 8.2103C16.0186 8.2759 16.0592 8.33528 16.1102 8.38497C16.2129 8.48201 16.3488 8.53608 16.4901 8.53608C16.6314 8.53608 16.7674 8.48201 16.8701 8.38497L19.4152 5.82919V8.30364C19.4173 8.44443 19.4741 8.57888 19.5737 8.67844C19.6733 8.77801 19.8077 8.83489 19.9485 8.83696C20.0899 8.83696 20.2256 8.78077 20.3256 8.68076C20.4256 8.58075 20.4818 8.44507 20.4818 8.30364V4.53332C20.48 4.39652 20.4265 4.26547 20.332 4.16653C20.2375 4.06759 20.1091 4.00808 19.9725 4Z" fill="#ffcd11"/>
<path d="M20.3331 15.3031C20.2283 15.2084 20.0917 15.1565 19.9505 15.1577C19.8091 15.1577 19.6734 15.2139 19.5734 15.3139C19.4734 15.4139 19.4172 15.5496 19.4172 15.691V18.1548L16.7508 15.4991C16.6784 15.4222 16.5848 15.3686 16.4819 15.3449C16.3791 15.3213 16.2715 15.3287 16.1728 15.3663C16.0742 15.4038 15.9889 15.4698 15.9278 15.5559C15.8667 15.6419 15.8325 15.7442 15.8295 15.8497C15.8299 15.9919 15.8826 16.1291 15.9775 16.235L18.6573 18.9147H16.1935C16.052 18.9147 15.9164 18.9709 15.8164 19.0709C15.7163 19.171 15.6602 19.3066 15.6602 19.448C15.6602 19.5895 15.7163 19.7251 15.8164 19.8252C15.9164 19.9252 16.052 19.9813 16.1935 19.9813H19.9625C20.1039 19.9813 20.2396 19.9252 20.3396 19.8252C20.4396 19.7251 20.4958 19.5895 20.4958 19.448V15.6764C20.488 15.5365 20.4303 15.404 20.3331 15.3031Z" fill="#ffcd11"/>
</svg>